<svg width="41" height="41" viewBox="0 0 41 41" fill="none" xmlns="http://www.w3.org/2000/svg">
<path d="M20.5445 5.81836C22.4943 5.81836 24.4249 6.20713 26.2262 6.96247C28.0276 7.71782 29.6643 8.82494 31.043 10.2206C32.4216 11.6163 33.5153 13.2733 34.2614 15.0968C35.0075 16.9204 35.3916 18.8749 35.3916 20.8487C35.3916 22.8225 35.0075 24.7769 34.2614 26.6005C33.5153 28.4241 32.4216 30.081 31.043 31.4767C29.6643 32.8724 28.0276 33.9795 26.2262 34.7348C24.4249 35.4902 22.4943 35.879 20.5445 35.879C16.6069 35.879 12.8305 34.2954 10.0461 31.4767C7.26177 28.658 5.69754 24.8349 5.69754 20.8487C5.69754 16.8624 7.26177 13.0394 10.0461 10.2206C12.8305 7.4019 16.6069 5.81836 20.5445 5.81836ZM20.5445 8.32341C17.2632 8.32341 14.1162 9.64303 11.7959 11.992C9.47557 14.3409 8.17204 17.5268 8.17204 20.8487C8.17204 24.1706 9.47557 27.3564 11.7959 29.7054C14.1162 32.0543 17.2632 33.3739 20.5445 33.3739C23.8259 33.3739 26.9729 32.0543 29.2932 29.7054C31.6135 27.3564 32.917 24.1706 32.917 20.8487C32.917 17.5268 31.6135 14.3409 29.2932 11.992C26.9729 9.64303 23.8259 8.32341 20.5445 8.32341ZM20.5445 27.1113C21.0368 27.1113 21.5088 27.3092 21.8568 27.6616C22.2049 28.0139 22.4004 28.4918 22.4004 28.9901C22.4004 29.4884 22.2049 29.9662 21.8568 30.3186C21.5088 30.6709 21.0368 30.8689 20.5445 30.8689C20.0523 30.8689 19.5803 30.6709 19.2322 30.3186C18.8842 29.9662 18.6887 29.4884 18.6887 28.9901C18.6887 28.4918 18.8842 28.0139 19.2322 27.6616C19.5803 27.3092 20.0523 27.1113 20.5445 27.1113ZM20.5445 12.081C21.8571 12.081 23.1159 12.6088 24.044 13.5484C24.9721 14.488 25.4935 15.7623 25.4935 17.0911C25.4935 18.9198 24.969 19.9468 23.6278 21.3697L22.9745 22.0461C22.0416 23.0281 21.7818 23.5591 21.7818 24.6062C21.7818 24.9384 21.6514 25.257 21.4194 25.4919C21.1874 25.7268 20.8727 25.8588 20.5445 25.8588C20.2164 25.8588 19.9017 25.7268 19.6697 25.4919C19.4376 25.257 19.3073 24.9384 19.3073 24.6062C19.3073 22.7775 19.8319 21.7505 21.1731 20.3276L21.8263 19.6512C22.7592 18.6693 23.019 18.1382 23.019 17.0911C23.019 16.4267 22.7583 15.7895 22.2943 15.3197C21.8302 14.85 21.2008 14.586 20.5445 14.586C19.8883 14.586 19.2589 14.85 18.7948 15.3197C18.3308 15.7895 18.07 16.4267 18.07 17.0911C18.07 17.4233 17.9397 17.7419 17.7077 17.9768C17.4756 18.2116 17.1609 18.3436 16.8328 18.3436C16.5047 18.3436 16.19 18.2116 15.9579 17.9768C15.7259 17.7419 15.5955 17.4233 15.5955 17.0911C15.5955 15.7623 16.117 14.488 17.0451 13.5484C17.9732 12.6088 19.232 12.081 20.5445 12.081Z" fill="#929292"/>
</svg>
