<svg width="36" height="36" viewBox="0 0 36 36" fill="none" xmlns="http://www.w3.org/2000/svg">
<path d="M20.6988 2.66547C20.9284 2.66547 21.1521 2.73835 21.3376 2.87361C21.5232 3.00887 21.661 3.19952 21.7313 3.41811L22.9242 7.12494C23.4252 7.37004 23.9046 7.64551 24.3623 7.95567L28.171 7.13579C28.3956 7.08784 28.6296 7.11242 28.8393 7.20597C29.049 7.29952 29.2236 7.45722 29.338 7.65635L32.3442 12.8598C32.459 13.0588 32.5076 13.2892 32.4831 13.5176C32.4585 13.746 32.362 13.9608 32.2076 14.1308L29.5939 17.0156C29.632 17.5688 29.632 18.1239 29.5939 18.6771L32.2076 21.5662C32.362 21.7363 32.4585 21.951 32.4831 22.1794C32.5076 22.4079 32.459 22.6382 32.3442 22.8372L29.338 28.0428C29.2233 28.2416 29.0486 28.3988 28.8389 28.492C28.6292 28.5851 28.3954 28.6094 28.171 28.5612L24.3623 27.7414C23.9068 28.0494 23.4252 28.327 22.9264 28.5721L21.7313 32.2789C21.661 32.4975 21.5232 32.6882 21.3376 32.8234C21.1521 32.9587 20.9284 33.0316 20.6988 33.0316H14.6863C14.4567 33.0316 14.233 32.9587 14.0475 32.8234C13.862 32.6882 13.7241 32.4975 13.6539 32.2789L12.4631 28.5743C11.9634 28.3299 11.4814 28.0509 11.0207 27.7392L7.21409 28.5612C6.98952 28.6092 6.75553 28.5846 6.54582 28.4911C6.33611 28.3975 6.16151 28.2398 6.04716 28.0407L3.04092 22.8372C2.92612 22.6382 2.8775 22.4079 2.90206 22.1794C2.92662 21.951 3.02309 21.7363 3.17757 21.5662L5.79122 18.6771C5.75336 18.1254 5.75336 17.5717 5.79122 17.02L3.17757 14.1308C3.02309 13.9608 2.92662 13.746 2.90206 13.5176C2.8775 13.2892 2.92612 13.0588 3.04092 12.8598L6.04716 7.65418C6.16182 7.45544 6.33656 7.29819 6.54625 7.20504C6.75593 7.11189 6.98975 7.08765 7.21409 7.13579L11.0207 7.95784C11.4805 7.64768 11.962 7.36787 12.4631 7.12278L13.656 3.41811C13.7261 3.20022 13.8632 3.01008 14.0479 2.87488C14.2326 2.73969 14.4553 2.66639 14.6841 2.66547H20.6966H20.6988ZM19.9049 4.83447H15.4802L14.2482 8.66711L13.4174 9.07271C13.0091 9.27256 12.6148 9.50011 12.2375 9.75378L11.4697 10.2743L7.53076 9.42409L5.31838 13.2589L8.01879 16.2478L7.95372 17.1674C7.92255 17.621 7.92255 18.0761 7.95372 18.5296L8.01879 19.4492L5.31404 22.4381L7.52859 26.2729L11.4675 25.4249L12.2353 25.9433C12.6127 26.1969 13.0069 26.4245 13.4153 26.6243L14.246 27.0299L15.4802 30.8626H19.9093L21.1456 27.0278L21.9742 26.6243C22.3821 26.4249 22.7757 26.1974 23.152 25.9433L23.9176 25.4249L27.8587 26.2729L30.0711 22.4381L27.3685 19.4492L27.4336 18.5296C27.4648 18.0754 27.4648 17.6195 27.4336 17.1653L27.3685 16.2456L30.0733 13.2589L27.8587 9.42409L23.9176 10.27L23.152 9.75378C22.7757 9.4996 22.3822 9.27203 21.9742 9.07271L21.1456 8.66928L19.9071 4.83447H19.9049ZM17.6926 11.3415C19.4183 11.3415 21.0734 12.0271 22.2937 13.2474C23.514 14.4677 24.1996 16.1227 24.1996 17.8485C24.1996 19.5743 23.514 21.2294 22.2937 22.4497C21.0734 23.67 19.4183 24.3555 17.6926 24.3555C15.9668 24.3555 14.3117 23.67 13.0914 22.4497C11.8711 21.2294 11.1855 19.5743 11.1855 17.8485C11.1855 16.1227 11.8711 14.4677 13.0914 13.2474C14.3117 12.0271 15.9668 11.3415 17.6926 11.3415ZM17.6926 13.5105C16.542 13.5105 15.4387 13.9675 14.6251 14.7811C13.8116 15.5946 13.3545 16.698 13.3545 17.8485C13.3545 18.999 13.8116 20.1024 14.6251 20.916C15.4387 21.7295 16.542 22.1865 17.6926 22.1865C18.8431 22.1865 19.9465 21.7295 20.76 20.916C21.5735 20.1024 22.0306 18.999 22.0306 17.8485C22.0306 16.698 21.5735 15.5946 20.76 14.7811C19.9465 13.9675 18.8431 13.5105 17.6926 13.5105Z" fill="#929292"/>
</svg>
