<svg width="448" height="242" viewBox="0 0 448 242" fill="none" xmlns="http://www.w3.org/2000/svg">
<rect x="1.06494" y="0.997559" width="446.435" height="239.815" rx="15.5" fill="white" stroke="url(#paint0_linear_9_2346)"/>
<mask id="mask0_9_2346" style="mask-type:alpha" maskUnits="userSpaceOnUse" x="0" y="0" width="448" height="242">
<rect x="1.06494" y="0.997559" width="446.435" height="239.815" rx="15.5" fill="#FDFCFF" stroke="url(#paint1_linear_9_2346)"/>
</mask>
<g mask="url(#mask0_9_2346)">
<path opacity="0.04" d="M480.339 219.894C480.339 233.347 472.331 246.239 457.676 258.035C443.025 269.828 421.794 280.469 395.515 289.416C342.962 307.307 270.327 318.382 190.075 318.382C109.822 318.382 37.188 307.307 -15.3655 289.416C-41.6448 280.469 -62.8755 269.828 -77.5264 258.035C-92.1818 246.239 -100.19 233.347 -100.19 219.894C-100.19 206.44 -92.1818 193.548 -77.5264 181.752C-62.8755 169.96 -41.6448 159.318 -15.3655 150.371C37.188 132.48 109.822 121.405 190.075 121.405C270.327 121.405 342.962 132.48 395.515 150.371C421.794 159.318 443.025 169.96 457.676 181.752C472.331 193.548 480.339 206.44 480.339 219.894Z" fill="#8567FE" stroke="#FCFFFF"/>
<path opacity="0.04" d="M325.721 224.525C325.721 265.704 300.206 303.049 258.819 330.124C217.436 357.195 160.236 373.956 97.0303 373.956C33.8241 373.956 -23.3754 357.195 -64.7583 330.124C-106.146 303.049 -131.66 265.704 -131.66 224.525C-131.66 183.347 -106.146 146.001 -64.7583 118.927C-23.3754 91.8552 33.8241 75.0947 97.0303 75.0947C160.236 75.0947 217.436 91.8552 258.819 118.927C300.206 146.001 325.721 183.347 325.721 224.525Z" fill="#8567FE" stroke="#FCFFFF"/>
</g>
<defs>
<linearGradient id="paint0_linear_9_2346" x1="0.564941" y1="0.497559" x2="402.107" y2="302.36" gradientUnits="userSpaceOnUse">
<stop stop-color="#8075FF"/>
<stop offset="1" stop-color="#211CFF"/>
</linearGradient>
<linearGradient id="paint1_linear_9_2346" x1="0.564941" y1="0.497559" x2="402.107" y2="302.36" gradientUnits="userSpaceOnUse">
<stop stop-color="#C69DFF"/>
<stop offset="1" stop-color="#4F76FF"/>
</linearGradient>
</defs>
</svg>
