<svg width="418" height="241" viewBox="0 0 418 241" fill="none" xmlns="http://www.w3.org/2000/svg">
<rect x="0.5" y="0.5" width="416.235" height="239.815" rx="15.5" fill="white" stroke="url(#paint0_linear_13_344)"/>
<mask id="mask0_13_344" style="mask-type:alpha" maskUnits="userSpaceOnUse" x="0" y="0" width="418" height="241">
<rect x="0.5" y="0.5" width="416.235" height="239.815" rx="15.5" fill="#FDFCFF" stroke="url(#paint1_linear_13_344)"/>
</mask>
<g mask="url(#mask0_13_344)">
<path opacity="0.04" d="M447.357 219.396C447.357 232.864 439.883 245.758 426.223 257.548C412.565 269.338 392.772 279.977 368.271 288.922C319.273 306.811 251.549 317.885 176.719 317.885C101.888 317.885 34.1645 306.811 -14.834 288.922C-39.3353 279.977 -59.128 269.338 -72.786 257.548C-86.4456 245.758 -93.9202 232.864 -93.9202 219.396C-93.9202 205.928 -86.4456 193.034 -72.786 181.244C-59.128 169.455 -39.3353 158.815 -14.834 149.87C34.1645 131.981 101.888 120.907 176.719 120.907C251.549 120.907 319.273 131.981 368.271 149.87C392.772 158.815 412.565 169.455 426.223 181.244C439.883 193.034 447.357 205.928 447.357 219.396Z" fill="#8567FE" stroke="#FCFFFF"/>
<path opacity="0.04" d="M303.175 224.028C303.175 265.222 279.374 302.568 240.791 329.635C202.209 356.701 148.881 373.458 89.9542 373.458C31.027 373.458 -22.3002 356.701 -60.8822 329.635C-99.4658 302.568 -123.267 265.222 -123.267 224.028C-123.267 182.833 -99.4658 145.487 -60.8822 118.42C-22.3002 91.3538 31.027 74.5972 89.9542 74.5972C148.881 74.5972 202.209 91.3538 240.791 118.42C279.374 145.487 303.175 182.833 303.175 224.028Z" fill="#8567FE" stroke="#FCFFFF"/>
</g>
<defs>
<linearGradient id="paint0_linear_13_344" x1="0" y1="0" x2="392.946" y2="275.462" gradientUnits="userSpaceOnUse">
<stop stop-color="#8075FF"/>
<stop offset="1" stop-color="#211CFF"/>
</linearGradient>
<linearGradient id="paint1_linear_13_344" x1="0" y1="0" x2="392.946" y2="275.462" gradientUnits="userSpaceOnUse">
<stop stop-color="#C69DFF"/>
<stop offset="1" stop-color="#4F76FF"/>
</linearGradient>
</defs>
</svg>
