<svg width="561" height="222" viewBox="0 0 561 222" fill="none" xmlns="http://www.w3.org/2000/svg">
<path opacity="0.04" d="M601.304 192.674C601.304 210.588 591.235 227.719 572.879 243.365C554.524 259.009 527.935 273.12 495.035 284.98C429.24 308.7 338.312 323.38 237.851 323.38C137.391 323.38 46.4622 308.7 -19.333 284.98C-52.2328 273.12 -78.8218 259.009 -97.1765 243.365C-115.533 227.719 -125.602 210.588 -125.602 192.674C-125.602 174.761 -115.533 157.629 -97.1765 141.983C-78.8218 126.339 -52.2328 112.228 -19.333 100.368C46.4622 76.6486 137.391 61.9682 237.851 61.9682C338.312 61.9682 429.24 76.6486 495.035 100.368C527.935 112.228 554.524 126.339 572.879 141.983C591.235 157.629 601.304 174.761 601.304 192.674Z" fill="#67BFFE" stroke="white"/>
<path opacity="0.04" d="M407.767 198.813C407.767 253.48 375.781 303.024 323.957 338.923C272.135 374.821 200.517 397.04 121.386 397.04C42.2554 397.04 -29.3626 374.821 -81.1842 338.923C-133.008 303.024 -164.994 253.48 -164.994 198.813C-164.994 144.146 -133.008 94.6019 -81.1842 58.7029C-29.3626 22.8052 42.2554 0.586075 121.386 0.586075C200.517 0.586075 272.135 22.8052 323.957 58.7029C375.781 94.6019 407.767 144.146 407.767 198.813Z" fill="#67BFFE" stroke="white"/>
</svg>
