<svg width="1440" height="4127" viewBox="0 0 1440 4127" fill="none" xmlns="http://www.w3.org/2000/svg">
<g clip-path="url(#clip0_20_305)">
<rect width="1440" height="4127" fill="white"/>
<path opacity="0.04" d="M982.574 1780.71C982.574 1913.91 909.827 2034.63 791.943 2122.11C674.059 2209.59 511.126 2263.75 331.081 2263.75C151.036 2263.75 -11.8978 2209.59 -129.781 2122.11C-247.665 2034.63 -320.412 1913.91 -320.412 1780.71C-320.412 1647.52 -247.665 1526.8 -129.781 1439.32C-11.8978 1351.84 151.036 1297.68 331.081 1297.68C511.126 1297.68 674.059 1351.84 791.943 1439.32C909.827 1526.8 982.574 1647.52 982.574 1780.71Z" fill="#8567FE" stroke="#FCFFFF" stroke-width="3.3675"/>
<path opacity="0.04" d="M1892.08 862.14C1892.08 914.637 1860.5 964.951 1802.7 1010.99C1744.92 1057.02 1661.19 1098.55 1557.55 1133.47C1350.29 1203.3 1063.84 1246.52 747.341 1246.52C430.845 1246.52 144.392 1203.3 -62.8683 1133.47C-166.508 1098.55 -250.24 1057.02 -308.021 1010.99C-365.822 964.951 -397.399 914.637 -397.399 862.14C-397.399 809.644 -365.822 759.329 -308.021 713.289C-250.24 667.263 -166.508 625.73 -62.8683 590.813C144.392 520.985 430.845 477.762 747.341 477.762C1063.84 477.762 1350.29 520.985 1557.55 590.813C1661.19 625.73 1744.92 667.263 1802.7 713.289C1860.5 759.329 1892.08 809.644 1892.08 862.14Z" fill="#67BFFE" stroke="white" stroke-width="3.89683"/>
<path opacity="0.04" d="M2062.08 3288.46C2240.58 3391.52 2338.5 3595.64 2352.2 3842.76C2365.89 4089.86 2295.34 4379.71 2137.17 4653.65C1979.01 4927.6 1763.28 5133.62 1542.43 5245.32C1321.57 5357.02 1095.84 5374.27 917.336 5271.21C738.833 5168.15 640.911 4964.04 627.215 4716.91C613.52 4469.81 684.077 4179.97 842.24 3906.02C1000.4 3632.08 1216.14 3426.05 1436.98 3314.36C1657.84 3202.66 1883.57 3185.4 2062.08 3288.46Z" fill="#67BFFE" stroke="white" stroke-width="3.89683"/>
<path opacity="0.04" d="M1242.31 880.216C1242.31 1040.92 1141.69 1186.67 978.467 1292.34C815.26 1397.99 589.674 1463.41 340.4 1463.41C91.1255 1463.41 -134.46 1397.99 -297.667 1292.34C-460.894 1186.67 -561.512 1040.92 -561.512 880.216C-561.512 719.516 -460.894 573.766 -297.667 468.096C-134.46 362.44 91.1255 297.026 340.4 297.026C589.674 297.026 815.26 362.44 978.467 468.096C1141.69 573.766 1242.31 719.516 1242.31 880.216Z" fill="#67BFFE" stroke="white" stroke-width="3.89683"/>
<path opacity="0.04" d="M1134.71 3962.83C1021.08 4076.46 846.868 4108.37 656.73 4067.68C466.614 4026.98 260.847 3913.72 84.5833 3737.46C-91.6803 3561.2 -204.939 3355.43 -245.633 3165.31C-286.333 2975.17 -254.42 2800.97 -140.787 2687.33C-27.1552 2573.7 147.054 2541.79 337.192 2582.49C527.307 2623.18 733.074 2736.44 909.338 2912.7C1085.6 3088.97 1198.86 3294.74 1239.55 3484.85C1280.25 3674.99 1248.34 3849.2 1134.71 3962.83Z" fill="#67BFFE" stroke="white" stroke-width="3.89683"/>
<path opacity="0.04" d="M1840.46 2235.05C1840.46 2373.78 1760.31 2499.54 1630.38 2590.69C1500.45 2681.83 1320.87 2738.26 1122.44 2738.26C923.999 2738.26 744.419 2681.83 614.494 2590.69C484.564 2499.54 404.414 2373.78 404.414 2235.05C404.414 2096.33 484.564 1970.57 614.494 1879.42C744.419 1788.27 923.999 1731.85 1122.44 1731.85C1320.87 1731.85 1500.45 1788.27 1630.38 1879.42C1760.31 1970.57 1840.46 2096.33 1840.46 2235.05Z" fill="#8567FE" stroke="#FCFFFF" stroke-width="3.3675"/>
</g>
<defs>
<clipPath id="clip0_20_305">
<rect width="1440" height="4127" fill="white"/>
</clipPath>
</defs>
</svg>
