<svg width="14" height="15" viewBox="0 0 14 15" fill="none" xmlns="http://www.w3.org/2000/svg">
<path d="M7.20593 0.735596C8.09236 0.735596 8.9701 0.91019 9.78905 1.24941C10.608 1.58863 11.3521 2.08583 11.9789 2.71262C12.6057 3.33942 13.1029 4.08353 13.4421 4.90248C13.7813 5.72143 13.9559 6.59917 13.9559 7.4856C13.9559 8.37202 13.7813 9.24976 13.4421 10.0687C13.1029 10.8877 12.6057 11.6318 11.9789 12.2586C11.3521 12.8854 10.608 13.3826 9.78905 13.7218C8.9701 14.061 8.09236 14.2356 7.20593 14.2356C5.41572 14.2356 3.69883 13.5244 2.43296 12.2586C1.16709 10.9927 0.455933 9.27581 0.455933 7.4856C0.455933 5.69538 1.16709 3.9785 2.43296 2.71262C3.69883 1.44675 5.41572 0.735596 7.20593 0.735596ZM7.20593 10.2981C6.98216 10.2981 6.76755 10.387 6.60931 10.5452C6.45108 10.7035 6.36218 10.9181 6.36218 11.1418C6.36218 11.3656 6.45108 11.5802 6.60931 11.7385C6.76755 11.8967 6.98216 11.9856 7.20593 11.9856C7.42971 11.9856 7.64432 11.8967 7.80255 11.7385C7.96079 11.5802 8.04968 11.3656 8.04968 11.1418C8.04968 10.9181 7.96079 10.7035 7.80255 10.5452C7.64432 10.387 7.42971 10.2981 7.20593 10.2981ZM7.20593 3.5481C6.6092 3.5481 6.0369 3.78515 5.61494 4.20711C5.19299 4.62906 4.95593 5.20136 4.95593 5.7981C4.95593 5.94728 5.0152 6.09035 5.12069 6.19584C5.22617 6.30133 5.36925 6.3606 5.51843 6.3606C5.66762 6.3606 5.81069 6.30133 5.91618 6.19584C6.02167 6.09035 6.08093 5.94728 6.08093 5.7981C6.08093 5.49973 6.19946 5.21358 6.41044 5.0026C6.62142 4.79162 6.90756 4.6731 7.20593 4.6731C7.5043 4.6731 7.79045 4.79162 8.00143 5.0026C8.21241 5.21358 8.33093 5.49973 8.33093 5.7981C8.33093 6.21435 8.23756 6.4506 7.91918 6.80835L7.78868 6.94897L7.49168 7.25272C6.88193 7.8906 6.64343 8.3496 6.64343 9.1731C6.64343 9.32228 6.7027 9.46535 6.80819 9.57084C6.91367 9.67633 7.05675 9.7356 7.20593 9.7356C7.35512 9.7356 7.49819 9.67633 7.60368 9.57084C7.70917 9.46535 7.76843 9.32228 7.76843 9.1731C7.76843 8.75685 7.86181 8.5206 8.18018 8.16285L8.31068 8.02222L8.60768 7.71847C9.21743 7.0806 9.45593 6.6216 9.45593 5.7981C9.45593 5.20136 9.21888 4.62906 8.79692 4.20711C8.37497 3.78515 7.80267 3.5481 7.20593 3.5481Z" fill="#2E77CD"/>
</svg>
