<svg width="43" height="38" viewBox="0 0 43 38" fill="none" xmlns="http://www.w3.org/2000/svg">
<g opacity="0.3">
<path d="M29.6108 25.3603L31.9549 23.0161C32.3211 22.6499 32.9584 22.9063 32.9584 23.4337V34.0848C32.9584 36.026 31.3835 37.6009 29.4423 37.6009H3.65704C1.71582 37.6009 0.140869 36.026 0.140869 34.0848V8.29952C0.140869 6.3583 1.71582 4.78335 3.65704 4.78335H23.6919C24.212 4.78335 24.4757 5.41333 24.1094 5.78692L21.7653 8.13103C21.6554 8.24091 21.5089 8.29952 21.3478 8.29952H3.65704V34.0848H29.4423V25.7705C29.4423 25.6166 29.5009 25.4701 29.6108 25.3603ZM41.0823 10.5777L21.8459 29.8141L15.2238 30.5466C13.3045 30.759 11.671 29.1401 11.8834 27.2062L12.6159 20.5841L31.8523 1.34776C33.5298 -0.329748 36.2402 -0.329748 37.9104 1.34776L41.0749 4.51231C42.7524 6.18981 42.7524 8.90752 41.0823 10.5777V10.5777ZM33.8448 12.8412L29.5888 8.5852L15.9783 22.203L15.4435 26.9865L20.227 26.4517L33.8448 12.8412ZM38.5916 7.00293L35.4271 3.83838C35.1267 3.53804 34.6359 3.53804 34.3429 3.83838L32.0794 6.10191L36.3354 10.3579L38.599 8.09441C38.892 7.78674 38.892 7.30327 38.5916 7.00293V7.00293Z" fill="#474747"/>
</g>
</svg>
